<svg id="socmed-logo" data-name="Layer 1" xmlns="http://www.w3.org/2000/svg" viewBox="0 0 100 100"><defs><style>.cls-1{fill:#fff;}</style></defs><title>ig-logo-01</title><path class="cls-1" d="M50,27.06c7.47,0,8.36,0,11.32.16a15.45,15.45,0,0,1,5.2,1,9.28,9.28,0,0,1,5.3,5.3,15.21,15.21,0,0,1,1,5.2c.14,3,.16,3.85.16,11.32s0,8.37-.16,11.32a15.12,15.12,0,0,1-1,5.2,9.33,9.33,0,0,1-5.3,5.31,15.44,15.44,0,0,1-5.2,1c-3,.14-3.84.16-11.32.16s-8.36,0-11.32-.16a15.44,15.44,0,0,1-5.2-1,9.3,9.3,0,0,1-5.24-5.32,15.21,15.21,0,0,1-1-5.2c-.14-3-.16-3.85-.16-11.32s0-8.36.16-11.32a15.21,15.21,0,0,1,1-5.2,9.25,9.25,0,0,1,5.24-5.24,15.21,15.21,0,0,1,5.2-1c3-.14,3.85-.16,11.32-.16m0-5.05c-7.6,0-8.55,0-11.54.16a20.52,20.52,0,0,0-6.8,1.31,14.25,14.25,0,0,0-8.24,8.23,20.82,20.82,0,0,0-1.3,6.8c-.13,3-.17,3.95-.17,11.55s0,8.55.17,11.54a20.52,20.52,0,0,0,1.41,6.69,14.23,14.23,0,0,0,8.23,8.24,20.82,20.82,0,0,0,6.8,1.3c3,.13,3.95.17,11.55.17s8.55,0,11.54-.17a20.82,20.82,0,0,0,6.8-1.3,14.23,14.23,0,0,0,8.23-8.24A20.52,20.52,0,0,0,78,61.54c.13-3,.16-3.94.16-11.54s0-8.55-.16-11.54a20.52,20.52,0,0,0-1.31-6.8,14.23,14.23,0,0,0-8.23-8.24,20.82,20.82,0,0,0-6.8-1.3c-3-.13-3.94-.17-11.54-.17Z"/><path class="cls-1" d="M50,35.62A14.38,14.38,0,1,0,64.38,50h0A14.38,14.38,0,0,0,50,35.62Zm0,23.71A9.33,9.33,0,1,1,59.33,50h0A9.33,9.33,0,0,1,50,59.33Z"/><circle class="cls-1" cx="64.94" cy="35.06" r="3.36"/></svg>
