<svg id="socmed-logo" data-name="Layer 1" xmlns="http://www.w3.org/2000/svg" viewBox="0 0 100 100"><defs><style>.cls-1{fill:#fff;}</style></defs><title>twitter-logo</title><path id="Twitter-8" class="cls-1" d="M78,32.64a23.61,23.61,0,0,1-6.6,1.81,11.5,11.5,0,0,0,5-6.37,22.82,22.82,0,0,1-7.3,2.79A11.49,11.49,0,0,0,49.58,41.35a32.71,32.71,0,0,1-23.7-11.94,11.51,11.51,0,0,0,3.53,15.3,11.5,11.5,0,0,1-5.21-1.44v.15a11.49,11.49,0,0,0,9.22,11.26,11.62,11.62,0,0,1-5.18.2,11.48,11.48,0,0,0,10.72,8,23.28,23.28,0,0,1-17,4.73,32.41,32.41,0,0,0,17.65,5.16c21.18,0,32.7-17.5,32.7-32.68V38.58A23.46,23.46,0,0,0,78,32.64Z"/></svg>
