<?xml version="1.0" encoding="utf-8"?>
<!-- Generator: Adobe Illustrator 22.0.1, SVG Export Plug-In . SVG Version: 6.00 Build 0)  -->
<svg version="1.1" id="Layer_1" xmlns="http://www.w3.org/2000/svg" xmlns:xlink="http://www.w3.org/1999/xlink" x="0px" y="0px"
	 viewBox="0 0 200 200" style="enable-background:new 0 0 200 200;" xml:space="preserve">
<style type="text/css">
	.st0{fill:#404040;}
</style>
<path class="st0" d="M56.8,114c-1.1,3.4,0.7,7.1,4.1,8.2h0c3.4,1.1,7.1-0.7,8.2-4.1l10.7-31.6c1.1-1.3,1.4,0.5,1.4,0.5l-2.5,39.7h0
	c0,0.1,0,0.2,0,0.3l-2.4,51.7c-0.2,5.3,3.9,9.9,9.3,10.2l0,0c5.3,0.2,9.9-3.9,10.2-9.3l2.4-51c0.7-1.3,1.4-1.7,2-1.7
	c0.6,0,1.3,0.5,2,1.7l2.4,51c0.2,5.3,4.8,9.5,10.2,9.3h0c5.3-0.2,9.5-4.8,9.3-10.2l-2.4-51.7c0-0.1,0-0.2,0-0.3h0L118.8,87l1.4-0.5
	l10.7,31.6c1.1,3.4,4.8,5.2,8.2,4.1h0c3.4-1.1,5.2-4.8,4.1-8.2l-20.1-59.6c-1-2.8-3.7-4.6-6.6-4.4l0,0H100H83.5l0,0
	c-2.9-0.2-5.6,1.6-6.6,4.4L56.8,114z"/>
<ellipse transform="matrix(0.7248 -0.6889 0.6889 0.7248 8.6908 76.4152)" class="st0" cx="100" cy="27.3" rx="17.3" ry="17.3"/>
</svg>
